<svg width="18" height="18" viewBox="0 0 18 18" fill="none" xmlns="http://www.w3.org/2000/svg">
<path d="M6 7.5H12M6 10.5H7.71142M8.84785 14.25H4.5C3.90326 14.25 3.33097 14.0129 2.90901 13.591C2.48705 13.169 2.25 12.5967 2.25 12V6C2.25 5.40326 2.48705 4.83097 2.90901 4.40901C3.33097 3.98705 3.90326 3.75 4.5 3.75H13.5C14.0967 3.75 14.669 3.98705 15.091 4.40901C15.5129 4.83097 15.75 5.40326 15.75 6V7.5M15.75 14.25L12 10.5M12 10.5V13.875M12 10.5H15.375" stroke="currentColor" stroke-width="1.5" stroke-linecap="round" stroke-linejoin="round"/>
</svg>
